<svg width="648" height="180" viewBox="0 0 648 180" fill="none" xmlns="http://www.w3.org/2000/svg">
<path d="M25.92 66.6H117.54V77.4H25.92V125.1H14.76V18.9H136.08V29.88H25.92V66.6ZM35.82 39.96H146.16V8.81999H4.68V135.18H35.82V87.3H127.44V56.7H35.82V39.96ZM0.18 139.68V4.32H150.66L168.12 22.86V61.92H140.58L149.4 70.74V109.26H57.78V157.14H18.72L0.18 139.68ZM203.515 18.9H214.315V125.1H203.515V18.9ZM224.215 8.81999H193.615V135.18H224.215V8.81999ZM189.115 139.68V4.32H228.715L246.175 22.86V157.14H207.655L189.115 139.68ZM401.282 18.9V27.9L308.582 114.12H407.042V125.1H289.502V116.1L382.562 29.88H295.082V18.9H401.282ZM357.542 39.96L279.602 111.78V135.18H416.942V104.04H333.782L411.362 32.4V8.81999H285.002V39.96H357.542ZM280.502 4.32H415.862L433.322 22.86V52.2L381.842 99.54H421.442L438.902 118.08V157.14H293.642L275.102 139.68V109.8L326.942 61.92H299.042L280.502 44.46V4.32ZM587.61 18.9V27.9L494.91 114.12H593.37V125.1H475.83V116.1L568.89 29.88H481.41V18.9H587.61ZM543.87 39.96L465.93 111.78V135.18H603.27V104.04H520.11L597.69 32.4V8.81999H471.33V39.96H543.87ZM466.83 4.32H602.19L619.65 22.86V52.2L568.17 99.54H607.77L625.23 118.08V157.14H479.97L461.43 139.68V109.8L513.27 61.92H485.37L466.83 44.46V4.32Z" fill="#FF2D78"/>
</svg>
