<svg width="466" height="225" viewBox="0 0 466 225" fill="none" xmlns="http://www.w3.org/2000/svg">
<path d="M115.769 82.4362C116.437 79.4501 116.792 76.386 116.792 73.2935C116.792 50.2448 98.0449 31.5048 74.9961 31.5048C51.9549 31.5048 33.2074 50.2523 33.2074 73.2935C33.2074 96.3347 51.9625 115.09 74.9961 115.09C78.3589 115.09 81.6931 114.67 84.9279 113.881C86.1009 97.2601 99.239 83.9074 115.768 82.4377L115.769 82.4362ZM80.535 39.745C74.0584 39.745 67.9656 41.3447 62.5761 44.1244C63.4719 44.295 64.2824 44.6434 64.972 45.1979C68.6334 48.1697 67.375 55.7909 62.1568 62.2316C56.9385 68.6656 49.7438 71.4739 46.0756 68.5021C44.9452 67.585 44.2841 66.2271 44.0636 64.5991C42.3076 69.0496 41.3122 73.884 41.3122 78.9601C41.3122 83.7021 42.1937 88.2308 43.7435 92.4395C40.2102 86.7875 38.1343 80.126 38.1343 72.9594C38.1343 52.5967 54.6417 36.0832 75.0045 36.0832C83.2514 36.0832 90.837 38.8203 96.9795 43.3917C91.9745 41.0812 86.415 39.7446 80.5358 39.7446L80.535 39.745Z" fill="#FF2D78"/>
<path d="M118.811 86.3036C102.282 86.3036 88.8372 99.7547 88.8372 116.285C88.8372 132.814 102.288 146.259 118.811 146.259C135.347 146.259 148.793 132.808 148.793 116.285C148.793 99.7565 135.342 86.3036 118.811 86.3036ZM122.124 91.6854C117.965 91.6854 114.048 92.7091 110.593 94.5006C111.169 94.6073 111.688 94.8348 112.136 95.1902C114.482 97.0955 113.678 101.994 110.33 106.124C106.974 110.255 102.353 112.061 99.9999 110.155C99.2748 109.565 98.8553 108.698 98.7131 107.653C97.5827 110.511 96.9428 113.618 96.9428 116.881C96.9428 119.924 97.5116 122.831 98.5068 125.533C96.2318 121.9 94.9023 117.62 94.9023 113.021C94.9023 99.9394 105.502 89.3455 118.584 89.3455C123.873 89.3455 128.75 91.1086 132.689 94.0377C129.468 92.5377 125.899 91.6845 122.124 91.6845L122.124 91.6854Z" fill="#FF2D78"/>
<path d="M61.4098 147.707C48.5135 147.707 38.0198 158.201 38.0198 171.103C38.0198 184 48.5133 194.5 61.4098 194.5C74.3133 194.5 84.8059 184.006 84.8059 171.103C84.813 158.2 74.3124 147.707 61.4098 147.707ZM61.9573 153.679C58.9713 153.679 56.156 154.419 53.6678 155.698C54.0801 155.776 54.4569 155.94 54.7768 156.196C56.4688 157.568 55.8859 161.087 53.4758 164.059C51.0728 167.031 47.7457 168.325 46.0536 166.952C45.5346 166.533 45.2289 165.9 45.1293 165.154C44.3189 167.201 43.8639 169.441 43.8639 171.78C43.8639 173.97 44.2762 176.06 44.9871 178.001C43.3591 175.391 42.3994 172.313 42.3994 169.007C42.3994 159.609 50.0206 151.987 59.4194 151.987C63.2229 151.987 66.7279 153.253 69.5574 155.357C67.2327 154.291 64.6662 153.679 61.9576 153.679L61.9573 153.679Z" fill="#FF2D78"/>
<path d="M265.88 73.5C266.12 74.22 266.24 75 266.24 75.84C266.24 80.64 264.68 83.04 261.56 83.04C261.2 83.04 260.3 82.86 258.86 82.5C257.42 82.02 255.86 81.6 254.18 81.24C252.5 80.76 250.82 80.34 249.14 79.98C247.46 79.5 246.08 79.26 245 79.26H243.38C239.3 78.3 235.4 77.58 231.68 77.1C227.96 76.62 224.36 76.38 220.88 76.38C220.04 76.38 219.2 76.44 218.36 76.56C217.64 76.56 216.92 76.56 216.2 76.56C215.48 78.84 214.88 81.12 214.4 83.4C214.04 85.56 213.86 87.84 213.86 90.24V91.5C213.74 92.82 213.62 94.26 213.5 95.82C213.5 97.38 213.5 99 213.5 100.68C213.5 101.88 213.5 103.14 213.5 104.46C213.5 105.78 213.56 107.1 213.68 108.42L230.42 108.06C230.54 108.06 231.32 108 232.76 107.88C234.32 107.76 236.06 107.64 237.98 107.52C239.9 107.28 241.88 107.1 243.92 106.98C245.96 106.86 247.64 106.8 248.96 106.8C251 106.8 252.5 107.34 253.46 108.42C254.42 109.5 254.9 110.88 254.9 112.56C254.9 114.36 254.42 115.68 253.46 116.52C252.5 117.36 251.06 117.96 249.14 118.32C247.22 118.68 244.76 118.92 241.76 119.04C238.88 119.04 235.46 119.22 231.5 119.58H228.08C226.16 119.58 224 119.64 221.6 119.76C219.2 119.88 216.62 120.06 213.86 120.3V141C213.74 141.96 213.68 142.86 213.68 143.7C213.68 144.42 213.68 145.14 213.68 145.86C213.68 151.5 214.4 156 215.84 159.36C215.6 163.32 213.8 165.3 210.44 165.3C208.04 165.3 205.88 163.98 203.96 161.34L201.62 151.26C201.14 148.74 200.78 146.22 200.54 143.7C200.3 141.18 200.18 138.66 200.18 136.14C200.18 134.22 200.18 132.18 200.18 130.02C200.3 127.86 200.36 125.52 200.36 123C200.36 120 200.36 116.82 200.36 113.46C200.36 109.98 200.24 106.32 200 102.48C200.36 84.96 202.34 72.66 205.94 65.58C206.66 64.86 208.58 64.5 211.7 64.5C212.18 64.5 213.08 64.56 214.4 64.68C215.84 64.8 217.34 64.92 218.9 65.04C220.46 65.16 221.96 65.28 223.4 65.4C224.84 65.52 225.92 65.58 226.64 65.58C227 65.58 227.24 65.58 227.36 65.58C227.6 65.46 227.9 65.4 228.26 65.4C230.18 65.4 235.1 66.3 243.02 68.1C254.54 68.34 262.16 70.14 265.88 73.5ZM307.644 76.92C307.644 78.96 307.284 80.64 306.564 81.96C305.964 83.16 305.124 84.06 304.044 84.66C302.964 85.26 301.764 85.68 300.444 85.92C299.244 86.04 298.044 86.1 296.844 86.1C295.164 84.9 293.724 83.58 292.524 82.14C291.444 80.58 290.904 79.08 290.904 77.64C290.904 76.56 291.384 75.36 292.344 74.04C293.304 72.6 294.144 71.22 294.864 69.9L303.144 70.62C306.144 71.34 307.644 73.44 307.644 76.92ZM301.524 103.02V103.74C301.524 104.82 301.344 106.62 300.984 109.14C300.744 111.54 300.324 114.72 299.724 118.68C299.844 119.28 299.904 120.12 299.904 121.2C299.904 121.92 299.664 123.54 299.184 126.06C298.704 128.58 298.464 130.74 298.464 132.54C298.464 132.9 298.464 133.26 298.464 133.62C298.584 133.98 298.644 134.28 298.644 134.52C298.284 136.2 298.104 138.6 298.104 141.72C298.104 143.04 298.104 144.48 298.104 146.04C298.224 147.48 298.344 149.04 298.464 150.72C297.504 154.2 295.644 155.94 292.884 155.94C290.484 155.94 288.804 154.68 287.844 152.16C287.004 149.52 286.584 146.1 286.584 141.9C286.584 137.7 286.704 133.86 286.944 130.38C287.304 126.9 287.724 123.66 288.204 120.66C288.684 117.54 289.164 114.6 289.644 111.84C290.244 108.96 290.784 106.14 291.264 103.38C292.464 101.58 294.144 100.68 296.304 100.68C298.584 100.68 300.324 101.46 301.524 103.02ZM381.858 161.34H381.318C380.718 161.34 379.698 161.22 378.258 160.98C376.938 160.86 375.438 160.68 373.758 160.44C372.198 160.32 370.638 160.14 369.078 159.9C367.638 159.78 366.558 159.72 365.838 159.72C364.038 159.72 361.818 159.6 359.178 159.36C356.658 159.12 354.198 158.88 351.798 158.64C349.398 158.28 347.238 157.98 345.318 157.74C343.518 157.5 342.438 157.38 342.078 157.38C335.718 154.98 331.458 151.98 329.298 148.38C329.778 146.34 331.878 142.74 335.598 137.58C338.838 134.94 342.678 131.1 347.118 126.06C351.678 122.34 355.638 118.8 358.998 115.44C362.478 111.96 365.238 108.66 367.278 105.54C365.958 105.06 364.398 104.7 362.598 104.46C360.918 104.22 358.818 104.1 356.298 104.1C356.058 104.1 355.218 104.22 353.778 104.46C352.338 104.58 350.718 104.76 348.918 105C347.118 105.12 345.258 105.24 343.338 105.36C341.538 105.48 340.038 105.54 338.838 105.54C336.678 105.18 335.598 103.2 335.598 99.6C335.598 98.16 335.658 97.08 335.778 96.36C335.898 95.64 336.498 95.1 337.578 94.74C338.778 94.26 340.638 93.84 343.158 93.48C345.678 93.12 349.338 92.64 354.138 92.04C357.618 92.04 361.758 92.46 366.558 93.3C371.358 94.02 376.158 95.22 380.958 96.9C381.318 98.94 381.498 100.68 381.498 102.12C381.498 103.68 381.138 105.24 380.418 106.8C379.698 108.36 378.858 109.8 377.898 111.12C376.938 112.44 375.918 113.64 374.838 114.72C373.878 115.8 373.038 116.64 372.318 117.24C371.718 118.2 370.818 119.34 369.618 120.66C368.538 121.86 367.398 123.06 366.198 124.26C364.998 125.46 363.798 126.54 362.598 127.5C361.398 128.34 360.438 128.88 359.718 129.12C358.998 130.08 357.858 131.28 356.298 132.72C354.858 134.04 353.298 135.48 351.618 137.04C350.058 138.6 348.558 140.1 347.118 141.54C345.798 142.98 345.018 144.12 344.778 144.96C346.818 145.92 349.698 146.7 353.418 147.3C357.258 147.78 361.098 148.14 364.938 148.38C368.898 148.62 372.378 148.8 375.378 148.92C378.498 149.04 380.298 149.1 380.778 149.1H381.858C384.738 150.42 386.178 152.52 386.178 155.4C386.178 158.64 384.738 160.62 381.858 161.34ZM453.752 161.34H453.212C452.612 161.34 451.592 161.22 450.152 160.98C448.832 160.86 447.332 160.68 445.652 160.44C444.092 160.32 442.532 160.14 440.972 159.9C439.532 159.78 438.452 159.72 437.732 159.72C435.932 159.72 433.712 159.6 431.072 159.36C428.552 159.12 426.092 158.88 423.692 158.64C421.292 158.28 419.132 157.98 417.212 157.74C415.412 157.5 414.332 157.38 413.972 157.38C407.612 154.98 403.352 151.98 401.192 148.38C401.672 146.34 403.772 142.74 407.492 137.58C410.732 134.94 414.572 131.1 419.012 126.06C423.572 122.34 427.532 118.8 430.892 115.44C434.372 111.96 437.132 108.66 439.172 105.54C437.852 105.06 436.292 104.7 434.492 104.46C432.812 104.22 430.712 104.1 428.192 104.1C427.952 104.1 427.112 104.22 425.672 104.46C424.232 104.58 422.612 104.76 420.812 105C419.012 105.12 417.152 105.24 415.232 105.36C413.432 105.48 411.932 105.54 410.732 105.54C408.572 105.18 407.492 103.2 407.492 99.6C407.492 98.16 407.552 97.08 407.672 96.36C407.792 95.64 408.392 95.1 409.472 94.74C410.672 94.26 412.532 93.84 415.052 93.48C417.572 93.12 421.232 92.64 426.032 92.04C429.512 92.04 433.652 92.46 438.452 93.3C443.252 94.02 448.052 95.22 452.852 96.9C453.212 98.94 453.392 100.68 453.392 102.12C453.392 103.68 453.032 105.24 452.312 106.8C451.592 108.36 450.752 109.8 449.792 111.12C448.832 112.44 447.812 113.64 446.732 114.72C445.772 115.8 444.932 116.64 444.212 117.24C443.612 118.2 442.712 119.34 441.512 120.66C440.432 121.86 439.292 123.06 438.092 124.26C436.892 125.46 435.692 126.54 434.492 127.5C433.292 128.34 432.332 128.88 431.612 129.12C430.892 130.08 429.752 131.28 428.192 132.72C426.752 134.04 425.192 135.48 423.512 137.04C421.952 138.6 420.452 140.1 419.012 141.54C417.692 142.98 416.912 144.12 416.672 144.96C418.712 145.92 421.592 146.7 425.312 147.3C429.152 147.78 432.992 148.14 436.832 148.38C440.792 148.62 444.272 148.8 447.272 148.92C450.392 149.04 452.192 149.1 452.672 149.1H453.752C456.632 150.42 458.072 152.52 458.072 155.4C458.072 158.64 456.632 160.62 453.752 161.34Z" fill="white"/>
</svg>
