<svg width="704" height="274" viewBox="0 0 704 274" fill="none" xmlns="http://www.w3.org/2000/svg">
<path d="M25.92 160.6H117.54V171.4H25.92V219.1H14.76V112.9H136.08V123.88H25.92V160.6ZM35.82 133.96H146.16V102.82H4.68V229.18H35.82V181.3H127.44V150.7H35.82V133.96ZM0.18 233.68V98.32H150.66L168.12 116.86V155.92H140.58L149.4 164.74V203.26H57.78V251.14H18.72L0.18 233.68ZM203.515 112.9H214.315V219.1H203.515V112.9ZM224.215 102.82H193.615V229.18H224.215V102.82ZM189.115 233.68V98.32H228.715L246.175 116.86V251.14H207.655L189.115 233.68ZM401.282 112.9V121.9L308.582 208.12H407.042V219.1H289.502V210.1L382.562 123.88H295.082V112.9H401.282ZM357.542 133.96L279.602 205.78V229.18H416.942V198.04H333.782L411.362 126.4V102.82H285.002V133.96H357.542ZM280.502 98.32H415.862L433.322 116.86V146.2L381.842 193.54H421.442L438.902 212.08V251.14H293.642L275.102 233.68V203.8L326.942 155.92H299.042L280.502 138.46V98.32ZM587.61 112.9V121.9L494.91 208.12H593.37V219.1H475.83V210.1L568.89 123.88H481.41V112.9H587.61ZM543.87 133.96L465.93 205.78V229.18H603.27V198.04H520.11L597.69 126.4V102.82H471.33V133.96H543.87ZM466.83 98.32H602.19L619.65 116.86V146.2L568.17 193.54H607.77L625.23 212.08V251.14H479.97L461.43 233.68V203.8L513.27 155.92H485.37L466.83 138.46V98.32Z" fill="#FF2D78"/>
<path d="M650.025 85.3C652.925 85.3 655.625 85 658.125 84.4C660.675 83.75 662.875 82.75 664.725 81.4C666.625 80 668.1 78.2 669.15 76C670.2 73.75 670.725 71 670.725 67.75C670.725 64.55 670.175 61.825 669.075 59.575C668.025 57.325 666.575 55.525 664.725 54.175C662.875 52.775 660.675 51.775 658.125 51.175C655.625 50.525 652.925 50.2 650.025 50.2H641.775C638.825 50.2 636.075 50.525 633.525 51.175C631.025 51.775 628.85 52.775 627 54.175C625.15 55.525 623.675 57.325 622.575 59.575C621.525 61.825 621 64.55 621 67.75C621 71 621.525 73.75 622.575 76C623.675 78.2 625.15 80 627 81.4C628.85 82.8 631.025 83.8 633.525 84.4C636.075 85 638.825 85.3 641.775 85.3H650.025ZM641.775 81.1C639.525 81.1 637.4 80.875 635.4 80.425C633.4 79.975 631.65 79.25 630.15 78.25C628.65 77.2 627.45 75.825 626.55 74.125C625.65 72.425 625.2 70.3 625.2 67.75C625.2 65.25 625.65 63.15 626.55 61.45C627.45 59.75 628.65 58.375 630.15 57.325C631.7 56.275 633.475 55.525 635.475 55.075C637.475 54.625 639.575 54.4 641.775 54.4H650.025C652.225 54.4 654.325 54.625 656.325 55.075C658.325 55.525 660.075 56.275 661.575 57.325C663.075 58.375 664.275 59.75 665.175 61.45C666.075 63.15 666.525 65.25 666.525 67.75C666.525 70.25 666.075 72.35 665.175 74.05C664.325 75.75 663.15 77.125 661.65 78.175C660.15 79.225 658.4 79.975 656.4 80.425C654.4 80.875 652.275 81.1 650.025 81.1H641.775ZM616.275 67.75C616.275 63.7 616.9 60.275 618.15 57.475C619.45 54.675 621.225 52.4 623.475 50.65C625.775 48.85 628.475 47.575 631.575 46.825C634.725 46.025 638.125 45.625 641.775 45.625H650.025C653.675 45.625 657.05 46.025 660.15 46.825C663.25 47.625 665.925 48.9 668.175 50.65C670.475 52.4 672.25 54.675 673.5 57.475C674.8 60.275 675.45 63.7 675.45 67.75C675.45 71.8 674.8 75.225 673.5 78.025C672.25 80.825 670.475 83.1 668.175 84.85C665.925 86.6 663.25 87.875 660.15 88.675C657.05 89.475 653.675 89.875 650.025 89.875H641.775C638.125 89.875 634.725 89.5 631.575 88.75C628.475 87.95 625.775 86.675 623.475 84.925C621.225 83.125 619.45 80.825 618.15 78.025C616.9 75.225 616.275 71.8 616.275 67.75ZM612.075 67.75C612.075 72.5 612.8 76.55 614.25 79.9C615.75 83.2 617.8 85.9 620.4 88C623.05 90.1 626.175 91.65 629.775 92.65C633.425 93.6 637.425 94.075 641.775 94.075H650.025C654.375 94.075 658.35 93.6 661.95 92.65C665.55 91.65 668.65 90.1 671.25 88C673.9 85.9 675.95 83.2 677.4 79.9C678.85 76.55 679.575 72.5 679.575 67.75C679.575 63 678.85 58.975 677.4 55.675C675.95 52.325 673.9 49.6 671.25 47.5C668.65 45.4 665.55 43.875 661.95 42.925C658.35 41.925 654.375 41.425 650.025 41.425H641.775C637.425 41.425 633.425 41.925 629.775 42.925C626.175 43.875 623.05 45.4 620.4 47.5C617.8 49.6 615.75 52.325 614.25 55.675C612.8 58.975 612.075 63 612.075 67.75ZM610.2 67.75C610.2 62.65 610.975 58.325 612.525 54.775C614.075 51.175 616.25 48.25 619.05 46C621.85 43.75 625.175 42.125 629.025 41.125C632.925 40.075 637.175 39.55 641.775 39.55H650.025C652.925 39.55 655.65 39.725 658.2 40.075C660.8 40.375 663.35 41.05 665.85 42.1C668.35 43.1 670.825 44.55 673.275 46.45C675.775 48.3 678.35 50.8 681 53.95C683.25 56.2 685.1 59.175 686.55 62.875C688 66.575 688.725 70.7 688.725 75.25C688.725 80.3 687.95 84.6 686.4 88.15C684.9 91.7 682.75 94.575 679.95 96.775C677.2 99.025 673.9 100.65 670.05 101.65C666.25 102.7 662.075 103.225 657.525 103.225H649.275C644.175 103.225 639.425 102.65 635.025 101.5C630.625 100.35 627 98.375 624.15 95.575C621.3 93.075 618.975 90.725 617.175 88.525C615.375 86.275 613.95 84.05 612.9 81.85C611.9 79.65 611.2 77.4 610.8 75.1C610.4 72.8 610.2 70.35 610.2 67.75ZM650.025 79.225C651.975 79.225 653.825 79.05 655.575 78.7C657.375 78.3 658.95 77.65 660.3 76.75C661.65 75.85 662.7 74.675 663.45 73.225C664.25 71.725 664.65 69.9 664.65 67.75C664.65 66.55 664.5 65.45 664.2 64.45C662.15 63.85 659.925 63.55 657.525 63.55H649.275C647.275 63.55 645.375 63.75 643.575 64.15C641.775 64.55 640.175 65.2 638.775 66.1C637.425 67 636.35 68.2 635.55 69.7C634.75 71.2 634.35 73.05 634.35 75.25C634.35 76.45 634.45 77.45 634.65 78.25C635.7 78.6 636.825 78.85 638.025 79C639.225 79.15 640.475 79.225 641.775 79.225H650.025Z" fill="#FF2D78"/>
<path d="M588.35 32.2C590.283 32.2 592.083 32 593.75 31.6C595.45 31.1667 596.917 30.5 598.15 29.6C599.417 28.6667 600.4 27.4667 601.1 26C601.8 24.5 602.15 22.6667 602.15 20.5C602.15 18.3667 601.783 16.55 601.05 15.05C600.35 13.55 599.383 12.35 598.15 11.45C596.917 10.5167 595.45 9.85 593.75 9.45C592.083 9.01666 590.283 8.8 588.35 8.8H582.85C580.883 8.8 579.05 9.01666 577.35 9.45C575.683 9.85 574.233 10.5167 573 11.45C571.767 12.35 570.783 13.55 570.05 15.05C569.35 16.55 569 18.3667 569 20.5C569 22.6667 569.35 24.5 570.05 26C570.783 27.4667 571.767 28.6667 573 29.6C574.233 30.5333 575.683 31.2 577.35 31.6C579.05 32 580.883 32.2 582.85 32.2H588.35ZM582.85 29.4C581.35 29.4 579.933 29.25 578.6 28.95C577.267 28.65 576.1 28.1667 575.1 27.5C574.1 26.8 573.3 25.8833 572.7 24.75C572.1 23.6167 571.8 22.2 571.8 20.5C571.8 18.8333 572.1 17.4333 572.7 16.3C573.3 15.1667 574.1 14.25 575.1 13.55C576.133 12.85 577.317 12.35 578.65 12.05C579.983 11.75 581.383 11.6 582.85 11.6H588.35C589.817 11.6 591.217 11.75 592.55 12.05C593.883 12.35 595.05 12.85 596.05 13.55C597.05 14.25 597.85 15.1667 598.45 16.3C599.05 17.4333 599.35 18.8333 599.35 20.5C599.35 22.1667 599.05 23.5667 598.45 24.7C597.883 25.8333 597.1 26.75 596.1 27.45C595.1 28.15 593.933 28.65 592.6 28.95C591.267 29.25 589.85 29.4 588.35 29.4H582.85ZM565.85 20.5C565.85 17.8 566.267 15.5167 567.1 13.65C567.967 11.7833 569.15 10.2667 570.65 9.1C572.183 7.9 573.983 7.05 576.05 6.55C578.15 6.01667 580.417 5.75 582.85 5.75H588.35C590.783 5.75 593.033 6.01667 595.1 6.55C597.167 7.08333 598.95 7.93333 600.45 9.1C601.983 10.2667 603.167 11.7833 604 13.65C604.867 15.5167 605.3 17.8 605.3 20.5C605.3 23.2 604.867 25.4833 604 27.35C603.167 29.2167 601.983 30.7333 600.45 31.9C598.95 33.0667 597.167 33.9167 595.1 34.45C593.033 34.9833 590.783 35.25 588.35 35.25H582.85C580.417 35.25 578.15 35 576.05 34.5C573.983 33.9667 572.183 33.1167 570.65 31.95C569.15 30.75 567.967 29.2167 567.1 27.35C566.267 25.4833 565.85 23.2 565.85 20.5ZM563.05 20.5C563.05 23.6667 563.533 26.3667 564.5 28.6C565.5 30.8 566.867 32.6 568.6 34C570.367 35.4 572.45 36.4333 574.85 37.1C577.283 37.7333 579.95 38.05 582.85 38.05H588.35C591.25 38.05 593.9 37.7333 596.3 37.1C598.7 36.4333 600.767 35.4 602.5 34C604.267 32.6 605.633 30.8 606.6 28.6C607.567 26.3667 608.05 23.6667 608.05 20.5C608.05 17.3333 607.567 14.65 606.6 12.45C605.633 10.2167 604.267 8.4 602.5 7C600.767 5.6 598.7 4.58333 596.3 3.95C593.9 3.28333 591.25 2.95 588.35 2.95H582.85C579.95 2.95 577.283 3.28333 574.85 3.95C572.45 4.58333 570.367 5.6 568.6 7C566.867 8.4 565.5 10.2167 564.5 12.45C563.533 14.65 563.05 17.3333 563.05 20.5ZM561.8 20.5C561.8 17.1 562.317 14.2167 563.35 11.85C564.383 9.45 565.833 7.5 567.7 6C569.567 4.5 571.783 3.41666 574.35 2.75C576.95 2.05 579.783 1.7 582.85 1.7H588.35C590.283 1.7 592.1 1.81667 593.8 2.05C595.533 2.25 597.233 2.7 598.9 3.4C600.567 4.06666 602.217 5.03333 603.85 6.3C605.517 7.53333 607.233 9.2 609 11.3C610.5 12.8 611.733 14.7833 612.7 17.25C613.667 19.7167 614.15 22.4667 614.15 25.5C614.15 28.8667 613.633 31.7333 612.6 34.1C611.6 36.4667 610.167 38.3833 608.3 39.85C606.467 41.35 604.267 42.4333 601.7 43.1C599.167 43.8 596.383 44.15 593.35 44.15H587.85C584.45 44.15 581.283 43.7667 578.35 43C575.417 42.2333 573 40.9167 571.1 39.05C569.2 37.3833 567.65 35.8167 566.45 34.35C565.25 32.85 564.3 31.3667 563.6 29.9C562.933 28.4333 562.467 26.9333 562.2 25.4C561.933 23.8667 561.8 22.2333 561.8 20.5ZM588.35 28.15C589.65 28.15 590.883 28.0333 592.05 27.8C593.25 27.5333 594.3 27.1 595.2 26.5C596.1 25.9 596.8 25.1167 597.3 24.15C597.833 23.15 598.1 21.9333 598.1 20.5C598.1 19.7 598 18.9667 597.8 18.3C596.433 17.9 594.95 17.7 593.35 17.7H587.85C586.517 17.7 585.25 17.8333 584.05 18.1C582.85 18.3667 581.783 18.8 580.85 19.4C579.95 20 579.233 20.8 578.7 21.8C578.167 22.8 577.9 24.0333 577.9 25.5C577.9 26.3 577.967 26.9667 578.1 27.5C578.8 27.7333 579.55 27.9 580.35 28C581.15 28.1 581.983 28.15 582.85 28.15H588.35Z" fill="#FF2D78"/>
</svg>
